# xmcd CD database file
#
# Track frame offsets:
#	150
#	21362
#	37852
#
# Disc length: 808 seconds
#
# Revision: 4
# Processed by: cddbd v1.5.2PL0 Copyright (c) Steve Scherf et al.
# Submitted via: CDex 1.70beta2
#
DISCID=19032603
DTITLE=RICHARD MARX with ASKA - EVERY DAY OF YOUR LIFE
DYEAR=1997
DGENRE=JPop
TTITLE0=EVERY DAY OF YOUR LIFE
TTITLE1=CAN'T HELP FALLING IN LOVE
TTITLE2=TAKE IT TO THE LIMIT
EXTD=YEAR: 1997
EXTT0=
EXTT1=
EXTT2=
PLAYORDER=
